<?xml version="1.0" standalone="no"?>
<!DOCTYPE svg PUBLIC "-//W3C//DTD SVG 20010904//EN"
 "http://www.w3.org/TR/2001/REC-SVG-20010904/DTD/svg10.dtd">
<svg version="1.0" xmlns="http://www.w3.org/2000/svg"
 width="900.000000pt" height="500.000000pt" viewBox="0 0 900.000000 500.000000"
 preserveAspectRatio="xMidYMid meet">

<g transform="translate(0.000000,500.000000) scale(0.100000,-0.100000)"
fill="#000000" stroke="none">
<path d="M297 3313 c-4 -3 -7 -94 -7 -201 0 -177 1 -194 17 -188 9 4 19 3 22
-2 3 -5 62 36 131 92 l125 102 3 96 c3 92 2 96 -20 102 -31 8 -263 8 -271 -1z"/>
<path d="M787 3313 c-13 -12 -8 -178 6 -195 26 -32 249 -202 268 -203 18 -2
19 7 19 190 l0 192 -25 11 c-27 13 -257 17 -268 5z"/>
<path d="M1495 3314 c-11 -2 -45 -9 -75 -15 -69 -14 -165 -64 -191 -100 -18
-25 -19 -45 -19 -277 l0 -250 26 -31 c64 -76 185 -121 345 -128 138 -7 236 11
317 58 90 51 92 57 92 330 0 229 -1 237 -23 270 -28 43 -112 94 -197 120 -62
19 -231 34 -275 23z m195 -154 c19 -19 20 -33 20 -231 0 -125 -4 -218 -10
-230 -17 -31 -64 -49 -130 -49 -100 0 -100 -1 -100 251 0 131 4 218 11 230 26
49 170 68 209 29z"/>
<path d="M2150 2900 c0 -373 0 -380 20 -380 11 0 20 -4 20 -10 0 -6 43 -10
110 -10 l110 0 0 202 c0 111 4 198 8 193 5 -6 46 -90 92 -188 98 -208 97 -207
229 -207 l86 0 75 181 75 182 3 -172 c2 -161 4 -171 22 -171 10 0 22 -4 25
-10 4 -6 53 -10 116 -10 l109 0 0 375 c0 321 -2 375 -15 375 -7 0 -18 7 -23
15 -7 13 -32 15 -163 13 l-154 -3 -92 -243 c-50 -134 -94 -246 -96 -248 -2 -3
-46 101 -97 231 -59 148 -98 235 -107 235 -7 0 -16 7 -19 15 -5 12 -34 15
-170 15 l-164 0 0 -380z"/>
<path d="M3420 2900 c0 -373 0 -380 20 -380 11 0 20 -4 20 -10 0 -6 115 -10
325 -10 l325 0 0 55 c0 42 -3 55 -15 55 -8 0 -15 5 -15 10 0 6 -72 10 -195 10
l-195 0 0 95 0 95 155 0 155 0 0 55 c0 48 -2 55 -20 55 -11 0 -20 5 -20 10 0
6 -52 10 -135 10 l-135 0 0 95 0 95 210 0 210 0 0 55 c0 40 -4 55 -14 55 -8 0
-16 7 -20 15 -5 13 -51 15 -331 15 l-325 0 0 -380z"/>
<path d="M4530 2879 l0 -381 153 4 c151 3 154 4 203 33 86 53 124 161 124 347
-1 202 -39 300 -139 351 -52 26 -61 27 -198 27 l-143 0 0 -381z m273 330 c52
-14 102 -61 124 -117 15 -39 18 -77 18 -212 0 -189 -12 -238 -71 -289 -45 -40
-69 -46 -189 -46 l-100 0 -3 338 -2 337 92 0 c51 0 110 -5 131 -11z"/>
<path d="M5300 2880 l0 -380 215 0 c208 0 215 1 215 20 0 19 -8 20 -187 22
l-188 3 -3 163 -2 162 135 0 c128 0 135 1 135 20 0 18 -8 20 -132 22 l-133 3
-3 153 -3 152 191 0 c183 0 190 1 190 20 0 19 -7 20 -215 20 l-215 0 0 -380z"/>
<path d="M6050 2880 l0 -380 225 0 c218 0 225 1 225 20 0 19 -7 20 -195 20
l-195 0 0 360 0 360 -30 0 -30 0 0 -380z"/>
<path d="M6710 2968 c0 -184 4 -308 11 -333 26 -93 151 -166 257 -150 72 11
139 52 170 104 l27 46 3 313 3 312 -30 0 -30 0 -3 -312 c-3 -305 -4 -314 -26
-349 -29 -48 -75 -69 -150 -69 -69 0 -114 24 -146 80 -20 33 -21 53 -24 343
l-3 307 -30 0 -29 0 0 -292z"/>
<path d="M7450 3256 c0 -2 45 -85 100 -186 55 -100 100 -183 100 -185 0 -4
-118 -220 -182 -332 l-29 -53 35 0 36 0 83 167 84 166 85 -164 c86 -163 86
-164 122 -167 l37 -3 -30 53 c-16 29 -64 116 -105 192 l-76 139 84 156 c46 86
91 171 100 189 l17 32 -36 0 -35 0 -81 -162 -82 -163 -81 163 c-80 160 -81
162 -113 162 -18 0 -33 -2 -33 -4z"/>
<path d="M8230 2880 l0 -380 220 0 c213 0 220 1 220 20 0 19 -7 20 -190 20
l-190 0 0 165 0 165 135 0 c128 0 135 1 135 20 0 19 -7 20 -135 20 l-135 0 0
155 0 155 185 0 c178 0 185 1 185 20 0 19 -7 20 -215 20 l-215 0 0 -380z"/>
<path d="M441 2933 l-223 -178 36 -9 36 -10 0 -103 c0 -102 0 -104 26 -113 14
-6 82 -10 150 -10 l125 0 -7 103 c-4 71 -3 110 5 125 14 27 81 45 132 37 59
-10 69 -32 69 -151 0 -97 1 -102 23 -108 32 -8 240 -7 254 2 8 5 13 44 15 112
l3 105 35 5 35 5 -75 60 c-41 32 -142 112 -223 177 -81 65 -152 118 -157 118
-4 0 -15 2 -22 5 -9 4 -105 -66 -237 -172z"/>
<path d="M3174 2086 c-35 -16 -44 -32 -44 -82 0 -49 13 -69 64 -99 24 -14 51
-34 60 -44 23 -26 18 -66 -9 -66 -15 0 -21 8 -23 33 -3 31 -5 32 -49 32 l-46
0 7 -42 c9 -53 19 -65 67 -78 89 -24 159 17 159 93 0 53 -22 84 -84 121 -48
28 -65 58 -46 81 16 19 30 10 30 -21 0 -22 4 -24 45 -24 45 0 45 0 45 35 0 29
-6 39 -32 55 -38 23 -99 25 -144 6z"/>
<path d="M3943 2085 c-17 -7 -36 -22 -42 -34 -16 -30 -14 -225 3 -266 12 -27
23 -36 57 -45 89 -24 153 12 165 93 l6 47 -50 0 -51 0 -3 -42 c-2 -31 -8 -44
-20 -46 -16 -3 -18 8 -18 121 0 68 3 126 6 130 3 3 12 3 20 0 9 -3 14 -21 14
-54 l0 -49 50 0 c48 0 50 1 50 28 0 61 -20 103 -55 118 -43 18 -90 17 -132 -1z"/>
<path d="M4268 2084 c-42 -22 -48 -43 -48 -174 0 -113 2 -122 23 -144 45 -45
158 -41 192 7 18 25 22 246 5 278 -25 45 -117 63 -172 33z m92 -158 c0 -50 -3
-101 -6 -113 -7 -26 -29 -30 -38 -7 -11 27 -6 204 5 226 11 21 12 21 25 3 10
-13 14 -48 14 -109z"/>
<path d="M4920 2093 c-49 -19 -69 -71 -50 -127 8 -24 24 -42 55 -60 24 -14 51
-33 59 -42 21 -20 21 -63 0 -71 -19 -7 -34 13 -34 45 0 19 -5 22 -40 22 -40 0
-40 0 -40 -40 0 -69 70 -104 159 -80 49 13 61 33 61 97 0 56 -15 78 -84 118
-50 29 -61 48 -45 76 8 16 13 18 25 8 8 -6 14 -20 14 -30 0 -15 8 -19 40 -19
39 0 40 1 40 33 0 47 -28 70 -93 73 -28 2 -59 1 -67 -3z"/>
<path d="M6170 2093 c-8 -3 -25 -15 -37 -26 -22 -19 -23 -28 -23 -149 0 -121
1 -130 23 -152 29 -29 85 -40 136 -26 50 13 71 42 71 97 l0 43 -45 0 c-44 0
-45 -1 -45 -32 0 -42 -13 -63 -34 -55 -22 9 -24 228 -2 246 19 16 36 -14 36
-63 0 -36 0 -36 45 -36 l45 0 0 46 c0 56 -12 79 -50 99 -28 15 -90 19 -120 8z"/>
<path d="M6768 2084 c-42 -22 -48 -43 -48 -174 0 -113 2 -122 23 -144 45 -45
158 -41 192 7 18 25 22 246 5 278 -25 45 -117 63 -172 33z m92 -165 c0 -104
-5 -129 -25 -129 -7 0 -16 7 -19 16 -11 27 -6 204 5 226 11 21 12 21 25 3 10
-13 14 -50 14 -116z"/>
<path d="M1580 1915 l0 -175 90 0 90 0 0 35 c0 34 -1 35 -40 35 l-40 0 0 40
c0 39 1 40 35 40 32 0 35 2 35 30 0 28 -3 30 -36 30 -35 0 -35 1 -32 38 3 34
6 37 36 40 28 3 32 7 32 33 l0 29 -85 0 -85 0 0 -175z"/>
<path d="M1840 1915 l0 -175 45 0 45 0 1 118 1 117 14 -85 c26 -162 22 -150
54 -150 31 0 27 -14 59 190 8 48 9 40 10 -67 l1 -123 45 0 45 0 0 175 0 175
-64 0 c-73 0 -71 2 -81 -95 -8 -70 -17 -71 -29 0 -17 103 -10 95 -82 95 l-64
0 0 -175z"/>
<path d="M2250 1915 l0 -175 50 0 49 0 3 73 3 72 40 3 c58 5 75 25 75 88 0 64
-15 100 -44 108 -11 3 -56 6 -98 6 l-78 0 0 -175z m128 113 c22 -22 12 -88
-14 -88 -10 0 -14 14 -14 50 0 51 6 60 28 38z"/>
<path d="M2560 1915 l0 -175 45 0 45 0 0 80 c0 73 2 80 20 80 18 0 20 -7 20
-80 l0 -80 45 0 45 0 0 80 c0 76 -1 81 -25 92 l-25 11 23 11 c18 9 23 21 25
63 2 43 -1 55 -19 72 -20 18 -35 21 -111 21 l-88 0 0 -175z m125 79 c0 -28 -4
-39 -15 -39 -16 0 -26 45 -16 72 11 28 31 7 31 -33z"/>
<path d="M2880 1915 l0 -175 85 0 85 0 0 35 c0 34 -1 35 -41 35 l-40 0 3 38
c3 34 6 37 36 40 28 3 32 7 32 32 0 25 -4 29 -32 32 -30 3 -33 6 -33 38 0 33
2 35 38 38 34 3 37 6 37 33 l0 29 -85 0 -85 0 0 -175z"/>
<path d="M3475 2068 c-7 -35 -45 -294 -45 -312 0 -12 11 -16 49 -16 49 0 50 1
53 33 2 24 8 32 23 32 15 0 21 -8 23 -32 3 -32 4 -33 53 -33 50 0 51 0 45 28
-3 15 -15 83 -26 152 -31 189 -19 170 -100 170 -64 0 -70 -2 -75 -22z m94
-175 c1 -27 -3 -33 -20 -33 -17 0 -20 5 -15 28 2 15 8 50 12 77 l8 50 7 -45
c4 -25 8 -60 8 -77z"/>
<path d="M4550 1915 l0 -175 40 0 40 0 1 78 1 77 26 -77 26 -78 43 0 43 0 0
175 0 175 -40 0 -40 0 -1 -77 c0 -84 -2 -83 -40 20 -20 56 -21 57 -60 57 l-39
0 0 -175z"/>
<path d="M5160 2061 c0 -26 4 -30 33 -33 l32 -3 3 -142 3 -143 44 0 44 0 3
143 3 142 28 3 c23 3 27 8 27 33 l0 29 -110 0 -110 0 0 -29z"/>
<path d="M5460 1915 l0 -175 50 0 50 0 0 81 c0 71 2 80 18 77 14 -3 17 -16 20
-81 l3 -77 44 0 45 0 0 70 c0 62 -3 74 -24 95 -23 22 -23 25 -6 30 22 7 34 53
25 95 -11 48 -38 60 -137 60 l-88 0 0 -175z m128 113 c22 -22 8 -78 -20 -78
-4 0 -8 20 -8 45 0 46 7 54 28 33z"/>
<path d="M5780 1956 c0 -166 7 -190 65 -212 54 -20 108 -12 141 21 23 23 24
29 24 175 l0 150 -45 0 -45 0 0 -134 c0 -142 -4 -166 -26 -166 -11 0 -14 28
-14 150 l0 150 -50 0 -50 0 0 -134z"/>
<path d="M6420 2060 c0 -27 3 -30 30 -30 l30 0 0 -145 0 -145 50 0 49 0 3 143
3 142 28 3 c23 3 27 8 27 33 l0 29 -110 0 -110 0 0 -30z"/>
<path d="M7050 1915 l0 -175 45 0 45 0 0 81 c0 71 2 80 18 77 14 -3 17 -16 20
-81 l3 -77 44 0 45 0 0 73 c0 77 -4 87 -35 105 -17 10 -17 11 -3 12 43 0 52
96 13 135 -22 23 -32 25 -110 25 l-85 0 0 -175z m118 116 c20 -12 11 -75 -10
-79 -15 -3 -18 4 -18 42 0 47 4 52 28 37z"/>
<path d="M7369 1915 l-25 -175 48 0 c45 0 48 2 56 32 12 47 39 49 48 4 6 -35
7 -36 55 -36 46 0 49 2 44 23 -2 12 -14 78 -25 147 -33 202 -20 180 -103 180
l-72 0 -26 -175z m115 18 c7 -70 6 -73 -14 -73 -20 0 -21 3 -15 58 7 59 15 96
20 90 1 -2 6 -36 9 -75z"/>
</g>
</svg>
