<?xml version="1.0" standalone="no"?>
<!DOCTYPE svg PUBLIC "-//W3C//DTD SVG 20010904//EN"
 "http://www.w3.org/TR/2001/REC-SVG-20010904/DTD/svg10.dtd">
<svg version="1.0" xmlns="http://www.w3.org/2000/svg"
 width="900.000000pt" height="275.000000pt" viewBox="0 0 900.000000 275.000000"
 preserveAspectRatio="xMidYMid meet">

<g transform="translate(0.000000,275.000000) scale(0.100000,-0.100000)"
fill="#000000" stroke="none">
<path d="M1484 2059 c-119 -14 -224 -63 -258 -120 -13 -23 -16 -66 -16 -272
l0 -245 26 -32 c34 -40 145 -96 232 -116 90 -22 274 -14 353 14 77 28 135 67
153 107 23 48 23 472 1 516 -18 34 -99 89 -174 119 -43 17 -202 43 -236 39 -5
-1 -42 -5 -81 -10z m208 -146 c16 -15 18 -36 18 -239 0 -214 -1 -224 -21 -243
-46 -42 -185 -48 -210 -9 -5 7 -8 114 -6 238 l2 224 34 23 c43 29 153 33 183
6z"/>
<path d="M294 2047 c-2 -7 -3 -93 -2 -192 l3 -178 25 -2 c18 -2 58 25 147 97
l123 99 0 94 0 95 -145 0 c-109 0 -147 -3 -151 -13z"/>
<path d="M780 1980 c0 -84 10 -119 40 -137 10 -7 62 -47 116 -91 55 -43 109
-81 122 -84 l22 -6 0 193 c0 167 -2 194 -16 199 -9 3 -76 6 -150 6 l-134 0 0
-80z"/>
<path d="M2150 1645 c0 -368 0 -375 20 -375 11 0 20 -4 20 -10 0 -6 43 -10
110 -10 l110 0 0 201 c0 110 4 198 8 195 5 -3 46 -86 93 -186 99 -214 98 -213
229 -208 l84 3 75 182 c42 100 79 183 84 183 4 0 7 -79 7 -175 0 -168 1 -175
20 -175 11 0 20 -4 20 -10 0 -6 43 -10 110 -10 l110 0 0 373 0 372 -27 13
c-18 8 -78 12 -177 12 l-151 0 -91 -241 c-49 -132 -94 -239 -100 -238 -5 2
-49 105 -98 229 -74 189 -92 228 -114 238 -17 8 -80 12 -184 12 l-158 0 0
-375z"/>
<path d="M3420 1645 c0 -368 0 -375 20 -375 11 0 20 -4 20 -10 0 -6 115 -10
325 -10 l325 0 0 53 c0 74 -10 77 -237 77 l-183 0 0 95 0 95 155 0 155 0 0 55
c0 48 -2 55 -20 55 -11 0 -20 5 -20 10 0 6 -52 10 -135 10 l-135 0 0 95 0 95
210 0 210 0 0 53 c0 78 4 77 -372 77 l-318 0 0 -375z"/>
<path d="M4530 1631 l0 -381 128 0 c154 0 217 15 267 65 46 47 75 141 82 270
11 200 -31 334 -121 390 -48 29 -52 30 -203 33 l-153 4 0 -381z m283 327 c101
-30 137 -116 137 -328 0 -161 -17 -233 -65 -283 -42 -43 -92 -57 -209 -57
l-96 0 0 340 0 340 96 0 c53 0 115 -5 137 -12z"/>
<path d="M5300 1630 l0 -380 215 0 c208 0 215 1 215 20 0 19 -7 20 -190 20
l-190 0 0 165 0 165 135 0 c128 0 135 1 135 20 0 19 -7 20 -135 20 l-135 0 0
155 0 155 185 0 c178 0 185 1 185 20 0 19 -7 20 -210 20 l-210 0 0 -380z"/>
<path d="M6050 1630 l0 -380 220 0 c213 0 220 1 220 20 0 19 -7 20 -190 20
l-190 0 0 360 0 360 -30 0 -30 0 0 -380z"/>
<path d="M6720 1691 c0 -314 0 -318 23 -352 12 -18 42 -47 65 -63 37 -26 55
-31 117 -34 87 -5 133 8 182 51 62 54 63 63 63 407 l0 310 -25 0 -25 0 0 -302
c0 -277 -2 -307 -20 -345 -59 -131 -281 -112 -320 27 -5 19 -10 166 -10 328
l0 292 -25 0 -25 0 0 -319z"/>
<path d="M7453 2003 c3 -5 48 -88 102 -186 81 -150 96 -182 87 -201 -5 -11
-52 -99 -105 -194 l-95 -172 34 0 34 0 82 165 c46 91 85 165 88 165 3 0 42
-74 88 -165 80 -160 83 -165 113 -165 39 0 43 -11 -76 207 -52 95 -95 174 -95
177 0 5 52 101 162 304 l39 72 -33 0 c-33 0 -34 -1 -113 -160 -44 -88 -82
-160 -85 -160 -3 0 -41 72 -85 160 -79 159 -80 160 -113 160 -18 0 -31 -3 -29
-7z"/>
<path d="M8230 1630 l0 -380 220 0 c213 0 220 1 220 20 0 19 -7 20 -190 20
l-190 0 0 165 0 165 130 0 c123 0 130 1 130 20 0 19 -7 20 -130 20 l-130 0 0
155 0 155 185 0 c178 0 185 1 185 20 0 19 -7 20 -215 20 l-215 0 0 -380z"/>
<path d="M436 1678 l-216 -173 35 -9 35 -10 0 -103 c0 -102 0 -104 26 -113 14
-6 82 -10 150 -10 l125 0 -7 109 c-6 101 -5 110 14 129 39 39 161 41 182 2 6
-10 10 -66 10 -123 0 -124 -10 -117 156 -117 80 0 115 4 122 13 6 7 13 58 14
113 l3 99 34 5 c33 5 31 7 -189 183 -165 131 -230 177 -250 177 -20 0 -83 -45
-244 -172z"/>
<path d="M3184 840 c-48 -19 -67 -81 -43 -134 7 -14 36 -40 66 -58 53 -32 72
-61 59 -94 -11 -28 -41 -12 -44 24 -3 31 -5 32 -48 32 -48 0 -50 -3 -34 -61
15 -53 79 -78 150 -59 46 12 70 42 70 87 0 54 -17 80 -77 120 -59 39 -80 77
-52 94 19 11 29 2 29 -27 0 -22 4 -24 45 -24 42 0 45 2 45 26 0 14 -4 34 -10
44 -18 33 -106 51 -156 30z"/>
<path d="M3945 836 c-17 -7 -36 -25 -43 -40 -15 -33 -16 -211 -2 -253 17 -47
83 -71 149 -53 50 13 68 35 76 93 l7 47 -51 0 -51 0 0 -45 c0 -39 -3 -45 -20
-45 -20 0 -20 5 -18 128 3 105 6 127 18 127 11 0 16 -14 18 -52 l3 -53 50 0
c47 0 49 1 49 28 0 15 -5 43 -10 63 -17 60 -102 87 -175 55z"/>
<path d="M4273 835 c-17 -7 -36 -22 -42 -34 -14 -26 -14 -233 0 -264 15 -33
53 -52 104 -52 51 0 89 19 104 52 14 31 14 238 0 265 -13 23 -67 48 -106 48
-15 -1 -42 -7 -60 -15z m87 -164 c0 -111 -7 -138 -34 -128 -13 5 -16 25 -16
120 0 117 9 148 37 126 9 -8 13 -42 13 -118z"/>
<path d="M4910 838 c-54 -29 -63 -113 -17 -155 12 -11 41 -32 65 -47 37 -23
42 -31 42 -62 0 -31 -3 -35 -22 -32 -18 2 -24 11 -26 36 -3 30 -5 32 -43 32
l-40 0 3 -42 c4 -55 39 -82 108 -82 72 0 104 26 108 88 4 60 -13 87 -78 127
-55 34 -70 63 -46 88 15 14 18 14 26 1 5 -8 10 -23 10 -32 0 -14 9 -18 40 -18
39 0 40 1 40 35 0 26 -6 39 -26 51 -33 22 -112 29 -144 12z"/>
<path d="M6163 835 c-17 -7 -36 -22 -42 -34 -6 -11 -11 -73 -11 -141 0 -113 1
-122 23 -144 33 -33 93 -41 144 -21 45 18 63 47 63 100 0 35 0 35 -45 35 -44
0 -45 -1 -45 -32 0 -42 -13 -63 -34 -55 -13 5 -16 26 -16 126 0 72 4 122 10
126 21 13 40 -17 40 -61 l0 -44 45 0 45 0 0 46 c0 58 -13 82 -55 100 -43 17
-81 17 -122 -1z"/>
<path d="M6773 835 c-17 -7 -36 -22 -42 -34 -14 -26 -14 -233 0 -264 15 -33
53 -52 104 -52 51 0 89 19 104 52 14 31 14 238 0 265 -13 23 -67 48 -106 48
-15 -1 -42 -7 -60 -15z m87 -164 c0 -111 -7 -138 -34 -128 -13 5 -16 25 -16
120 0 117 9 148 37 126 9 -8 13 -42 13 -118z"/>
<path d="M1580 665 l0 -175 90 0 90 0 0 35 c0 34 -1 35 -40 35 l-40 0 0 40 c0
39 1 40 35 40 32 0 35 2 35 30 0 28 -3 30 -35 30 -34 0 -35 1 -35 40 0 39 1
40 35 40 32 0 35 2 35 30 l0 30 -85 0 -85 0 0 -175z"/>
<path d="M1840 665 l0 -175 45 0 45 0 1 123 c1 107 2 115 10 67 32 -204 28
-190 60 -190 16 0 29 6 30 13 0 6 9 62 19 122 l18 110 1 -122 1 -123 45 0 45
0 0 175 0 175 -64 0 c-72 0 -70 3 -82 -103 -4 -32 -10 -54 -14 -50 -4 4 -13
41 -19 81 l-13 72 -64 0 -64 0 0 -175z"/>
<path d="M2250 665 l0 -175 50 0 50 0 0 75 0 75 44 0 c58 0 76 24 76 98 0 43
-5 58 -25 77 -22 23 -32 25 -110 25 l-85 0 0 -175z m135 75 c0 -35 -4 -45 -17
-48 -15 -3 -18 4 -18 48 0 44 3 51 18 48 13 -3 17 -13 17 -48z"/>
<path d="M2560 665 l0 -175 45 0 45 0 0 80 c0 73 2 80 20 80 18 0 20 -7 20
-80 l0 -80 45 0 45 0 0 74 c0 74 -13 106 -43 106 -7 0 -1 6 13 13 21 10 26 21
28 60 3 39 -1 51 -22 72 -23 23 -33 25 -111 25 l-85 0 0 -175z m125 80 c0 -30
-4 -41 -17 -43 -15 -3 -18 4 -18 43 0 39 3 46 18 43 13 -2 17 -13 17 -43z"/>
<path d="M2880 665 l0 -175 85 0 85 0 0 35 c0 34 -1 35 -40 35 l-40 0 0 40 c0
39 1 40 35 40 32 0 35 2 35 30 0 28 -3 30 -36 30 -35 0 -35 1 -32 38 3 35 5
37 41 40 34 3 37 6 37 33 l0 29 -85 0 -85 0 0 -175z"/>
<path d="M3476 813 c-8 -42 -46 -294 -46 -309 0 -10 15 -14 50 -14 l50 0 0 36
c0 31 3 35 23 32 17 -2 23 -11 25 -35 3 -32 4 -33 53 -33 50 0 51 0 45 28 -3
15 -15 83 -26 152 -31 189 -19 170 -99 170 -68 0 -70 -1 -75 -27z m93 -165 c1
-32 -2 -38 -20 -38 -22 0 -22 -1 -2 123 l7 42 7 -45 c4 -25 8 -62 8 -82z"/>
<path d="M4550 665 l0 -175 40 0 40 0 1 83 1 82 26 -82 25 -83 44 0 43 0 0
175 0 175 -40 0 -39 0 -3 -77 -3 -78 -29 78 -29 77 -38 0 -39 0 0 -175z"/>
<path d="M5160 811 c0 -26 4 -30 33 -33 l32 -3 3 -142 3 -143 44 0 45 0 0 145
0 145 30 0 c27 0 30 3 30 30 l0 30 -110 0 -110 0 0 -29z"/>
<path d="M5460 665 l0 -175 50 0 50 0 0 81 c0 71 2 80 18 77 14 -3 17 -16 20
-81 l3 -77 44 0 45 0 0 70 c0 63 -3 74 -26 95 -24 22 -24 24 -6 30 24 7 35 44
26 91 -10 52 -35 64 -136 64 l-88 0 0 -175z m135 80 c0 -30 -4 -41 -17 -43
-15 -3 -18 4 -18 43 0 39 3 46 18 43 13 -2 17 -13 17 -43z"/>
<path d="M5782 691 c3 -130 5 -152 22 -170 28 -31 87 -44 136 -31 64 17 70 34
70 202 l0 148 -45 0 -44 0 -3 -147 c-3 -131 -5 -148 -20 -151 -17 -3 -18 9
-18 147 l0 151 -51 0 -51 0 4 -149z"/>
<path d="M6420 810 c0 -27 3 -30 30 -30 l30 0 0 -145 0 -145 50 0 50 0 0 145
0 145 30 0 c27 0 30 3 30 30 l0 30 -110 0 -110 0 0 -30z"/>
<path d="M7050 665 l0 -175 45 0 45 0 0 80 c0 73 2 80 20 80 18 0 20 -7 20
-80 l0 -80 45 0 45 0 0 74 c0 68 -2 76 -25 94 -25 20 -25 21 -5 27 24 8 34 43
26 90 -10 52 -37 65 -133 65 l-83 0 0 -175z m125 80 c0 -30 -4 -41 -17 -43
-15 -3 -18 4 -18 43 0 39 3 46 18 43 13 -2 17 -13 17 -43z"/>
<path d="M7395 828 c-6 -20 -45 -295 -45 -318 0 -17 6 -20 44 -20 45 0 56 10
56 51 0 12 7 19 19 19 20 0 31 -18 31 -51 0 -16 7 -19 48 -19 l49 0 -28 168
c-16 92 -29 170 -29 175 0 13 -140 8 -145 -5z m90 -140 c6 -76 6 -78 -15 -78
-21 0 -22 3 -15 63 7 63 14 101 20 95 1 -2 6 -38 10 -80z"/>
</g>
</svg>
